<?xml version="1.0" encoding="UTF-8" standalone="no"?>
<svg width="25px" height="21px" viewBox="0 0 25 21" version="1.1" xmlns="http://www.w3.org/2000/svg" xmlns:xlink="http://www.w3.org/1999/xlink" xmlns:sketch="http://www.bohemiancoding.com/sketch/ns">
    <!-- Generator: Sketch 3.5.1 (25234) - http://www.bohemiancoding.com/sketch -->
    <title>twitter-icon</title>
    <desc>Created with Sketch.</desc>
    <defs></defs>
    <g id="Page-1" stroke="none" stroke-width="1" fill="none" fill-rule="evenodd" sketch:type="MSPage">
        <g id="abd-wwots-landing-v2" sketch:type="MSArtboardGroup" transform="translate(-1371.000000, -40.000000)" fill="#D2D2D2">
            <g id="featured" sketch:type="MSLayerGroup">
                <g id="header" transform="translate(1041.000000, 18.000000)" sketch:type="MSShapeGroup">
                    <g id="twitter-icon" transform="translate(330.000000, 22.000000)">
                        <path d="M25,2.40497573 C24.0802184,2.81298544 23.0916869,3.08877427 22.0541869,3.21262136 C23.1129854,2.57785194 23.9263956,1.57275485 24.309284,0.375 C23.3182039,0.962803398 22.2205704,1.38962379 21.0522451,1.61959951 C20.1166869,0.622754854 18.7836772,3.55271368e-15 17.3084345,3.55271368e-15 C13.9977549,3.55271368e-15 11.564017,3.08956311 12.3122573,6.29775485 C8.04951456,6.0839199 4.27014563,4.04186893 1.7404733,0.938895631 C0.39690534,3.24368932 1.04356796,6.25995146 3.32773058,7.78658981 C2.48707524,7.76001214 1.69599515,7.52924757 1.00461165,7.14496359 C0.948968447,9.52129854 2.65182039,11.7433252 5.11838592,12.2389563 C4.39654126,12.4353762 3.60588592,12.4803398 2.80224515,12.3267597 C3.45479369,14.3643811 5.34908981,15.8472694 7.59350728,15.8885922 C5.43713592,17.5784587 2.72123786,18.3332524 0,18.0125607 C2.26978155,19.4677791 4.96583738,20.3169903 7.86231796,20.3169903 C17.3848908,20.3169903 22.7649272,12.2738471 22.4406553,5.06001214 C23.4429005,4.3368932 24.3123786,3.43355583 25,2.40497573 L25,2.40497573 Z"></path>
                    </g>
                </g>
            </g>
        </g>
    </g>
</svg>